<?xml version="1.0" standalone="no"?>
<!DOCTYPE svg PUBLIC "-//W3C//DTD SVG 20010904//EN"
 "http://www.w3.org/TR/2001/REC-SVG-20010904/DTD/svg10.dtd">
<svg version="1.0" xmlns="http://www.w3.org/2000/svg"
 width="269.000000pt" height="269.000000pt" viewBox="0 0 269.000000 269.000000"
 preserveAspectRatio="xMidYMid meet">
<metadata>
Created by potrace 1.14, written by Peter Selinger 2001-2017
</metadata>
<g transform="translate(0.000000,269.000000) scale(0.100000,-0.100000)"
fill="#000000" stroke="none">
<path d="M402 2340 c-15 -24 -16 -60 -2 -60 7 0 9 -95 8 -277 -3 -258 -4 -278
-20 -275 -10 2 -18 -2 -18 -8 0 -5 7 -10 15 -10 8 0 15 -7 15 -15 0 -8 5 -15
10 -15 6 0 10 -7 10 -15 0 -8 7 -15 15 -15 12 0 15 -16 15 -80 0 -47 4 -80 10
-80 6 0 10 10 11 23 4 106 2 102 32 105 15 2 27 -1 27 -7 0 -14 37 -51 50 -51
6 0 10 -6 10 -12 0 -9 4 -8 10 2 9 13 11 13 20 0 5 -8 10 -21 10 -28 0 -7 5
-10 10 -7 6 3 14 -4 19 -17 9 -22 9 -22 17 -4 5 12 3 21 -4 24 -6 2 -14 19
-18 38 -6 31 -9 34 -40 34 -24 0 -34 5 -34 15 0 8 -7 15 -15 15 -10 0 -15 10
-15 30 0 20 5 30 15 30 8 0 15 7 15 15 0 9 9 15 24 15 13 0 26 -7 30 -15 4
-11 -1 -15 -18 -15 -28 0 -55 -47 -32 -56 7 -3 17 -4 22 -3 5 1 28 1 52 0 30
-1 42 -5 42 -16 0 -8 9 -15 20 -15 11 0 20 -7 20 -15 0 -8 7 -15 15 -15 8 0
15 7 15 15 0 12 17 15 90 15 73 0 90 -3 90 -15 0 -8 5 -15 10 -15 6 0 10 -9
10 -20 0 -13 7 -20 20 -20 13 0 20 -7 20 -20 0 -11 7 -20 15 -20 12 0 15 -18
15 -105 0 -87 -3 -105 -15 -105 -9 0 -15 -9 -15 -25 0 -24 -3 -25 -54 -25 -32
0 -56 5 -58 12 -6 16 -149 13 -159 -4 -12 -19 -149 -21 -149 -2 0 9 11 14 30
14 20 0 30 5 30 15 0 8 5 15 10 15 6 0 10 5 10 11 0 7 7 17 16 23 22 16 34
181 13 174 -9 -3 -15 -22 -17 -52 -2 -26 -7 -44 -13 -41 -5 4 -9 -1 -9 -9 0
-9 -7 -16 -15 -16 -10 0 -15 -10 -15 -30 0 -21 -5 -30 -16 -30 -14 0 -14 3 -4
15 11 13 8 15 -18 15 -25 0 -30 3 -25 17 4 10 2 14 -5 9 -6 -3 -13 3 -17 14
-3 11 -15 20 -26 20 -10 0 -19 7 -19 15 0 8 -7 15 -15 15 -8 0 -15 5 -15 10 0
6 -12 10 -26 10 -25 0 -26 2 -22 45 4 51 -9 58 -45 24 -12 -11 -30 -18 -39
-15 -10 2 -21 0 -24 -5 -6 -11 -81 -12 -87 -1 -3 4 -3 19 0 33 4 21 9 25 29
21 14 -2 24 0 24 7 0 6 -7 11 -15 11 -8 0 -15 7 -15 15 0 27 -17 16 -24 -16
-5 -25 -10 -30 -28 -27 -16 2 -24 11 -26 30 -3 22 1 27 24 30 29 3 47 28 20
28 -9 0 -16 7 -16 15 0 8 -7 15 -15 15 -11 0 -15 8 -12 28 3 23 9 28 43 33 21
3 33 7 27 8 -7 0 -13 12 -13 25 0 14 -4 28 -10 31 -6 3 -10 -4 -10 -17 -1 -17
-12 -29 -48 -46 -26 -12 -59 -22 -74 -22 -15 0 -29 -4 -32 -9 -3 -5 8 -8 26
-6 50 4 68 -4 66 -31 -2 -18 -9 -24 -28 -25 -14 -1 -36 -2 -50 -3 -20 -1 -26
4 -28 27 -5 38 -22 23 -22 -19 0 -20 4 -33 10 -29 20 12 50 -15 50 -45 0 -27
3 -30 33 -30 21 0 43 -10 66 -30 30 -27 41 -30 97 -30 35 0 64 -3 64 -7 0 -5
16 -26 35 -48 l35 -40 0 -112 0 -113 -59 0 c-33 0 -63 -4 -66 -10 -3 -5 -22
-10 -41 -10 -24 0 -34 -5 -34 -15 0 -8 -6 -15 -14 -15 -8 0 -16 -7 -20 -15 -3
-8 -12 -15 -21 -15 -8 0 -24 -9 -35 -20 -24 -24 -27 -80 -5 -80 8 0 15 -7 15
-15 0 -8 -7 -15 -15 -15 -26 0 -19 -59 10 -82 14 -11 25 -26 25 -34 0 -8 5
-14 10 -14 6 0 10 6 10 14 0 23 42 27 62 6 10 -11 18 -24 18 -30 0 -5 7 -10
15 -10 8 0 15 -4 15 -10 0 -5 9 -10 20 -10 20 0 20 -5 18 -202 l-3 -203 -92
-3 c-51 -1 -93 -7 -93 -11 0 -5 549 -9 1220 -10 979 -1 1220 1 1220 11 0 10
-19 12 -71 10 -39 -2 -82 -1 -95 2 l-24 6 0 200 c0 193 1 200 20 200 11 0 20
5 20 10 0 6 7 10 15 10 8 0 15 4 15 10 0 18 34 50 52 50 11 0 23 -12 30 -28
10 -23 12 -24 16 -8 2 11 15 31 28 45 27 29 32 69 9 77 -8 4 -15 12 -15 19 0
7 7 15 15 19 32 12 2 96 -35 96 -5 0 -10 7 -10 15 0 9 -9 15 -25 15 -16 0 -25
6 -25 15 0 10 -10 15 -33 15 -18 0 -37 4 -43 9 -5 6 -34 11 -64 13 l-55 3 -3
108 c-2 89 0 108 13 113 8 3 15 10 15 15 0 5 10 25 23 44 21 33 24 35 84 35
55 0 66 4 96 30 23 20 45 30 66 30 17 0 32 5 32 10 1 6 3 15 4 20 1 6 3 16 4
24 0 8 11 16 24 18 18 2 23 10 25 41 4 42 -15 52 -20 10 -2 -23 -8 -28 -28
-26 -56 4 -79 7 -75 11 2 3 0 13 -6 23 -11 21 -8 22 64 21 20 0 37 4 37 9 0 5
-18 9 -40 9 -22 0 -40 5 -40 10 0 6 -7 10 -15 10 -8 0 -15 5 -15 10 0 6 -11
10 -25 10 -27 0 -35 26 -13 48 6 6 9 15 5 18 -11 11 -37 -24 -37 -51 0 -15 -4
-24 -10 -20 -6 3 -10 1 -10 -4 0 -6 18 -11 41 -11 39 0 40 -1 37 -32 -2 -20
-8 -32 -15 -30 -7 1 -13 -5 -13 -13 0 -8 -7 -15 -15 -15 -8 0 -15 -7 -15 -15
0 -8 -5 -15 -11 -15 -6 0 -9 -8 -6 -19 3 -14 0 -17 -14 -14 -11 3 -19 0 -19
-6 0 -6 7 -11 15 -11 8 0 15 -5 15 -12 0 -6 6 -3 14 7 7 10 11 27 8 37 -3 14
1 18 22 18 22 0 26 -4 26 -30 0 -26 -4 -30 -26 -30 -23 0 -25 -3 -20 -25 6
-24 4 -25 -38 -25 -25 0 -48 5 -52 11 -3 6 -15 9 -25 6 -10 -3 -22 -1 -25 4
-3 5 -10 7 -15 4 -5 -4 -9 1 -9 9 0 9 -9 16 -21 16 -18 0 -20 -4 -13 -45 6
-44 5 -45 -20 -45 -18 0 -26 -5 -26 -17 0 -9 -3 -13 -7 -10 -3 4 -12 -1 -19
-11 -7 -9 -16 -17 -21 -17 -17 0 -55 -34 -48 -44 4 -7 -4 -11 -20 -11 -16 0
-24 -4 -19 -11 3 -6 22 -9 40 -7 19 2 34 0 34 -4 0 -4 -26 -8 -57 -7 -32 0
-52 3 -45 6 6 2 12 9 12 14 0 6 -4 8 -9 5 -5 -4 -7 3 -4 14 3 12 0 20 -7 20
-27 0 -40 29 -40 90 0 53 3 63 20 67 11 3 20 9 20 14 0 5 6 9 13 9 23 0 67 25
67 38 0 6 7 12 15 12 8 0 15 7 15 15 0 10 10 15 30 15 l30 0 0 -65 c0 -37 4
-65 10 -65 6 0 10 32 10 75 0 58 4 77 15 81 8 4 15 12 15 20 0 8 5 14 10 14 6
0 10 7 10 15 0 8 7 15 15 15 8 0 15 5 15 10 0 6 -8 10 -17 8 -17 -3 -18 16
-21 266 -1 173 1 273 8 280 14 14 12 47 -4 69 -15 19 -46 23 -62 7 -14 -14
-1744 -14 -1758 0 -17 17 -60 11 -74 -10z m144 -27 c-10 -11 -56 -11 -56 -1 0
4 14 8 32 8 17 0 28 -3 24 -7z m191 0 c-7 -7 -149 -4 -156 3 -2 2 33 4 79 4
46 0 80 -3 77 -7z m193 0 c0 -5 -36 -8 -80 -8 -44 0 -80 3 -80 7 0 5 36 8 80
8 44 0 80 -3 80 -7z m322 0 c141 -5 157 -8 161 -25 3 -10 12 -18 21 -18 9 0
16 -7 16 -15 0 -9 9 -15 25 -15 16 0 25 6 25 15 0 9 9 15 21 15 18 0 21 -5 17
-30 -4 -27 -2 -30 24 -30 27 0 29 3 26 33 l-3 32 68 3 c62 3 67 1 67 -18 0
-11 5 -20 10 -20 6 0 10 -9 10 -20 0 -11 -4 -20 -9 -20 -5 0 -12 -11 -15 -25
-4 -14 -13 -25 -21 -25 -12 0 -15 -15 -15 -75 0 -60 3 -75 15 -75 10 0 15 -10
15 -30 0 -21 5 -30 16 -30 26 0 9 -25 -19 -28 -15 -2 -27 -10 -27 -18 0 -8 -9
-14 -20 -14 -12 0 -20 6 -19 13 3 26 -1 47 -11 47 -5 0 -10 -21 -10 -46 0 -42
-2 -46 -21 -41 -15 4 -19 2 -15 -10 3 -8 6 -28 6 -44 0 -28 2 -29 45 -29 33 0
45 4 45 15 0 10 10 15 30 15 26 0 30 -4 30 -27 0 -33 -38 -73 -69 -73 -12 0
-21 -6 -21 -15 0 -8 7 -15 15 -15 12 0 15 -13 15 -60 0 -45 -4 -62 -15 -66 -9
-4 -15 -19 -15 -35 0 -19 -5 -29 -15 -29 -8 0 -15 -7 -15 -15 0 -8 -7 -15 -15
-15 -8 0 -15 -7 -15 -15 0 -11 -12 -15 -45 -15 -33 0 -45 -4 -45 -15 0 -13
-21 -15 -125 -15 -104 0 -125 2 -125 15 0 11 -11 15 -40 15 -29 0 -40 4 -40
15 0 14 -12 19 -32 16 -5 0 -8 6 -8 14 0 8 -7 15 -15 15 -10 0 -15 10 -15 29
0 25 -4 30 -27 33 -24 3 -28 8 -31 41 -2 24 -8 37 -18 37 -8 0 -14 5 -14 10 0
6 7 10 15 10 8 0 15 9 15 20 0 11 -7 20 -15 20 -8 0 -15 7 -15 15 0 8 -7 15
-15 15 -12 0 -15 13 -15 55 0 42 3 55 15 55 10 0 15 -10 15 -30 0 -20 5 -30
15 -30 8 0 14 -4 13 -9 -3 -9 2 -11 22 -11 16 0 12 47 -5 54 -8 3 -15 17 -15
31 0 16 6 25 15 25 8 0 15 7 15 15 0 8 -7 15 -15 15 -8 0 -15 8 -15 18 0 10
-3 13 -8 6 -12 -18 -52 -24 -52 -8 0 8 -7 14 -15 14 -8 0 -15 -7 -15 -15 0 -8
-7 -15 -15 -15 -10 0 -15 -10 -15 -30 0 -16 -4 -30 -10 -30 -6 0 -10 28 -10
63 0 59 2 64 21 63 12 -1 24 5 26 12 3 8 -6 12 -27 12 -39 0 -36 23 3 28 15 2
27 10 27 18 0 8 7 14 15 14 8 0 15 7 15 15 0 8 -7 15 -15 15 -10 0 -15 10 -15
30 0 27 3 30 30 30 20 0 30 5 30 15 0 8 -7 15 -15 15 -9 0 -15 9 -15 24 0 13
-7 26 -15 30 -8 3 -15 12 -15 21 0 8 7 15 15 15 8 0 15 9 15 20 0 18 7 20 71
20 62 0 71 -2 76 -20 6 -23 23 -27 23 -5 0 9 9 15 25 15 17 0 25 5 25 18 0 15
-14 17 -118 20 -64 2 -119 6 -121 8 -6 6 111 5 291 -3z m484 -2 c-6 -9 -296
-4 -305 5 -2 2 66 4 153 4 93 0 155 -4 152 -9z m194 2 c0 -5 -26 -7 -57 -5
-101 5 -111 9 -25 11 45 0 82 -2 82 -6z m190 -1 c0 -9 -149 -6 -158 3 -3 3 31
5 76 5 45 0 82 -4 82 -8z m100 -1 c0 -5 -16 -9 -35 -8 -46 3 -46 17 0 17 19 0
35 -4 35 -9z m-1680 -51 c0 -11 5 -20 10 -20 15 0 12 -36 -5 -50 -8 -7 -15
-19 -15 -26 0 -8 -10 -14 -25 -14 -24 0 -25 3 -25 58 0 65 3 72 37 72 16 0 23
-6 23 -20z m180 6 c0 -8 7 -16 15 -20 16 -6 21 -46 5 -46 -5 0 -12 -11 -16
-25 -3 -14 -13 -25 -20 -25 -8 0 -17 -7 -20 -15 -4 -8 -13 -15 -20 -15 -8 0
-17 7 -20 15 -4 8 -15 15 -25 15 -10 0 -19 -7 -19 -15 0 -8 6 -15 14 -15 11 0
13 -15 11 -70 -3 -64 -1 -70 17 -70 14 0 18 5 14 15 -3 8 -1 15 4 15 6 0 10
-13 10 -29 0 -27 -3 -30 -37 -33 -24 -2 -37 -8 -35 -16 3 -15 -22 -26 -43 -18
-17 6 -9 36 10 36 18 0 25 23 25 88 0 51 -1 54 -14 36 -18 -24 -34 -10 -18 16
7 11 12 29 12 40 0 11 7 20 15 20 9 0 15 9 15 24 0 13 -7 26 -15 30 -19 7 -20
36 -1 36 7 0 16 9 19 20 4 17 14 20 61 20 41 0 56 -4 56 -14z m197 -6 c3 -11
9 -20 14 -20 5 0 9 -9 9 -20 0 -11 -4 -20 -10 -20 -5 0 -12 -11 -16 -25 -3
-14 -10 -25 -15 -25 -5 0 -9 -7 -9 -15 0 -10 -11 -15 -35 -15 -24 0 -35 5 -35
15 0 8 -7 15 -15 15 -13 0 -20 18 -16 43 0 4 -6 7 -14 7 -8 0 -15 9 -15 19 0
10 7 21 15 25 8 3 15 12 15 21 0 12 13 15 61 15 52 0 62 -3 66 -20z m1007 -5
c18 -27 21 -55 6 -55 -5 0 -10 -6 -10 -13 0 -25 -45 -67 -71 -67 -27 0 -60 32
-62 61 -1 10 -7 19 -14 19 -18 0 -16 37 2 44 8 3 15 12 15 21 0 12 13 15 59
15 51 0 61 -3 75 -25z m183 5 c3 -11 9 -20 14 -20 5 0 9 -9 9 -20 0 -11 -7
-20 -15 -20 -9 0 -15 -9 -15 -25 0 -18 -5 -25 -20 -25 -11 0 -20 -7 -20 -15 0
-8 -9 -15 -20 -15 -11 0 -20 7 -20 15 0 19 -27 20 -32 2 -2 -10 -11 -11 -36
-5 -19 5 -30 13 -26 19 4 8 9 7 15 -2 6 -10 9 -10 9 -2 0 7 7 10 15 7 11 -5
15 1 15 20 0 14 -5 26 -10 26 -21 0 -20 28 2 53 19 23 31 27 76 27 46 0 55 -3
59 -20z m113 -49 c0 -67 0 -68 -25 -63 -18 3 -25 11 -25 28 0 15 -6 24 -15 24
-8 0 -15 9 -15 20 0 11 6 20 14 20 7 0 16 9 19 20 3 12 14 20 26 20 19 0 21
-6 21 -69z m-1763 -18 c-2 -16 -4 -5 -4 22 0 28 2 40 4 28 2 -13 2 -35 0 -50z
m1700 -20 c-4 -3 -1 -13 5 -21 8 -10 12 -49 10 -118 -1 -86 1 -104 13 -104 8
0 15 6 15 14 0 8 6 17 13 20 10 5 10 7 0 12 -20 9 -18 140 2 148 13 4 15 -10
15 -94 0 -80 -3 -100 -14 -100 -36 0 -46 -29 -46 -127 0 -71 -3 -94 -12 -91
-7 3 -14 17 -16 31 -4 31 -22 37 -22 7 0 -13 -7 -20 -20 -20 -13 0 -20 7 -20
20 0 11 -4 20 -9 20 -5 0 -11 12 -13 28 -2 15 -8 26 -15 25 -19 -4 -17 75 2
94 8 8 13 19 10 24 -4 5 -1 9 4 9 6 0 11 -4 11 -9 0 -4 11 -6 25 -3 25 4 25 4
25 -67 0 -41 4 -71 10 -71 6 0 10 70 10 190 0 138 3 190 12 190 6 0 8 -3 5 -7z
m-27 -27 c0 -3 -4 -8 -10 -11 -5 -3 -10 -1 -10 4 0 6 5 11 10 11 6 0 10 -2 10
-4z m-1673 -38 c-3 -8 -6 -5 -6 6 -1 11 2 17 5 13 3 -3 4 -12 1 -19z m63 -8
c0 -11 -2 -20 -4 -20 -2 0 -6 9 -9 20 -3 11 -1 20 4 20 5 0 9 -9 9 -20z m1598
-37 c-3 -57 -3 -58 -33 -58 -19 0 -29 5 -27 13 1 7 -5 15 -13 18 -20 8 -20 54
0 54 8 0 15 7 15 15 0 10 10 15 30 15 l31 0 -3 -57z m-328 17 c0 -21 -24 -28
-35 -10 -8 14 3 30 21 30 8 0 14 -9 14 -20z m-1120 0 c0 -5 -4 -10 -10 -10 -5
0 -10 5 -10 10 0 6 5 10 10 10 6 0 10 -4 10 -10z m1320 0 c0 -5 -4 -10 -10
-10 -5 0 -10 5 -10 10 0 6 5 10 10 10 6 0 10 -4 10 -10z m-1213 -35 c-10 -7
-17 -17 -17 -24 0 -6 -7 -11 -15 -11 -8 0 -15 7 -15 15 0 8 6 15 14 15 8 0 17
7 20 16 3 8 11 12 17 8 9 -5 7 -11 -4 -19z m1163 10 c0 -8 7 -15 15 -15 8 0
15 -4 15 -10 0 -14 -23 -12 -45 3 -10 8 -15 19 -11 25 10 17 26 15 26 -3z
m-1409 -85 c5 0 9 -4 9 -10 0 -5 -9 -10 -19 -10 -16 0 -19 6 -16 43 5 62 8 67
12 20 2 -24 8 -43 14 -43z m1259 50 c0 -21 -24 -28 -35 -10 -8 14 3 30 21 30
8 0 14 -9 14 -20z m330 -44 c0 -20 -19 -31 -32 -18 -6 6 -7 15 -4 21 10 16 36
13 36 -3z m-332 -19 c2 -10 -3 -17 -12 -17 -10 0 -16 9 -16 21 0 24 23 21 28
-4z m122 13 c0 -5 -5 -10 -11 -10 -5 0 -7 5 -4 10 3 6 8 10 11 10 2 0 4 -4 4
-10z m145 0 c-3 -5 -10 -10 -16 -10 -5 0 -9 5 -9 10 0 6 7 10 16 10 8 0 12 -4
9 -10z m-92 -14 c7 -19 -32 -51 -46 -37 -7 7 -5 12 6 17 9 3 17 12 17 20 0 18
16 18 23 0z m267 -141 c0 -89 -2 -104 -15 -99 -12 5 -15 26 -15 98 0 51 3 96
7 99 18 19 23 -2 23 -98z m-440 79 c0 -9 -7 -14 -17 -12 -25 5 -28 28 -4 28
12 0 21 -6 21 -16z m-1210 -36 c0 -15 5 -28 11 -28 7 0 9 10 5 25 -5 20 -3 25
14 25 15 0 20 -7 20 -26 0 -21 4 -25 20 -21 14 3 18 1 13 -6 -8 -14 -9 -19
-11 -65 -2 -31 -4 -33 -32 -28 -18 2 -36 -1 -44 -10 -17 -16 -26 -18 -26 -4 0
17 34 50 52 50 13 0 18 8 18 25 0 14 -4 25 -8 25 -5 0 -15 -11 -22 -25 -7 -14
-19 -25 -27 -25 -17 0 -17 27 0 33 7 2 8 8 3 13 -5 5 -11 4 -13 -3 -3 -7 -15
-13 -28 -13 -14 0 -25 -7 -28 -17 -3 -10 -5 -4 -6 14 -1 27 3 32 27 35 15 2
28 9 28 16 1 6 2 18 3 25 2 28 31 14 31 -15z m457 6 c-3 -3 -12 -4 -19 -1 -8
3 -5 6 6 6 11 1 17 -2 13 -5z m751 -27 c2 -10 -3 -17 -12 -17 -18 0 -29 16
-21 31 9 14 29 6 33 -14z m-1008 3 c0 -5 -4 -10 -10 -10 -5 0 -10 5 -10 10 0
6 5 10 10 10 6 0 10 -4 10 -10z m1190 -25 c0 -8 -7 -15 -15 -15 -8 0 -15 -7
-15 -15 0 -23 -14 -18 -26 10 -13 27 -7 33 34 34 13 1 22 -5 22 -14z m-330
-11 c0 -8 -4 -12 -10 -9 -5 3 -10 10 -10 16 0 5 5 9 10 9 6 0 10 -7 10 -16z
m150 -24 c0 -21 -24 -28 -35 -10 -8 14 3 30 21 30 8 0 14 -9 14 -20z m-1060 0
c0 -5 -4 -10 -10 -10 -5 0 -10 5 -10 10 0 6 5 10 10 10 6 0 10 -4 10 -10z
m1180 -31 c0 -11 -4 -18 -10 -14 -5 3 -7 12 -3 20 7 21 13 19 13 -6z m50 -29
c0 -21 -15 -27 -25 -10 -7 12 2 30 16 30 5 0 9 -9 9 -20z m-1150 -15 c0 -14
-4 -25 -10 -25 -5 0 -10 11 -10 25 0 14 5 25 10 25 6 0 10 -11 10 -25z m1277
-6 c-2 -28 -27 -23 -27 6 0 17 4 23 14 19 8 -3 14 -14 13 -25z m-297 -3 c0
-17 -27 -29 -35 -16 -4 6 -3 15 0 20 9 15 35 12 35 -4z m417 -3 c8 -10 11 -12
7 -4 -5 9 -3 12 4 7 17 -10 15 -46 -3 -46 -8 0 -15 7 -15 15 0 8 -4 15 -10 15
-5 0 -10 -7 -10 -15 0 -8 -9 -15 -20 -15 -11 0 -20 -7 -20 -15 0 -8 -6 -15
-14 -15 -9 0 -12 8 -8 25 2 14 8 25 13 25 5 0 9 7 9 16 0 10 6 14 15 10 8 -3
15 -1 15 4 0 16 22 11 37 -7z m-267 -23 c0 -12 -32 -50 -42 -50 -5 0 -8 7 -8
15 0 8 7 15 15 15 8 0 15 7 15 15 0 8 5 15 10 15 6 0 10 -4 10 -10z m-1420
-10 c0 -5 -4 -10 -10 -10 -5 0 -10 5 -10 10 0 6 5 10 10 10 6 0 10 -4 10 -10z
m260 0 c0 -5 -4 -10 -10 -10 -5 0 -10 5 -10 10 0 6 5 10 10 10 6 0 10 -4 10
-10z m1010 -25 c0 -8 -9 -15 -20 -15 -20 0 -26 11 -13 23 12 13 33 7 33 -8z
m303 -35 c-3 -11 -14 -20 -24 -20 -11 0 -19 -7 -19 -15 0 -8 -7 -15 -15 -15
-8 0 -15 -7 -15 -15 0 -8 -4 -15 -10 -15 -5 0 -10 -20 -10 -45 0 -31 -5 -47
-15 -51 -9 -4 -15 -19 -15 -35 0 -19 5 -29 15 -29 10 0 15 -10 15 -30 0 -20 5
-30 15 -30 9 0 12 -6 9 -15 -4 -9 0 -15 10 -15 9 0 16 -4 16 -9 0 -5 9 -11 21
-14 12 -3 19 -12 17 -19 -6 -18 -115 -21 -126 -3 -4 9 -30 14 -77 15 -98 2
-107 1 -100 -10 3 -5 -1 -10 -9 -10 -9 0 -16 6 -16 14 0 10 -9 14 -26 13 l-25
-2 -5 105 c-3 58 -10 107 -15 108 -15 6 -10 49 6 56 9 3 15 18 15 35 0 21 6
30 22 34 29 8 37 -1 15 -17 -21 -16 -23 -46 -2 -46 8 0 15 7 15 15 0 8 8 24
17 35 14 16 30 20 81 20 46 0 64 -4 68 -15 4 -8 10 -15 15 -15 5 0 9 7 9 15 0
9 9 15 25 15 16 0 25 6 25 15 0 11 12 15 49 15 44 0 49 -2 44 -20z m-1945 -37
c-2 -20 -9 -29 -25 -31 -20 -3 -23 1 -23 27 0 27 4 31 26 31 22 0 25 -4 22
-27z m2452 -3 c0 -25 -4 -30 -23 -30 -31 0 -35 5 -29 35 3 18 11 25 28 25 20
0 24 -5 24 -30z m-270 -99 c0 -5 -9 -11 -20 -14 -17 -4 -18 -2 -9 14 9 18 29
18 29 0z m-1940 5 c0 -3 -4 -8 -10 -11 -5 -3 -10 -1 -10 4 0 6 5 11 10 11 6 0
10 -2 10 -4z m17 -38 c-3 -8 -6 -5 -6 6 -1 11 2 17 5 13 3 -3 4 -12 1 -19z
m1263 -108 c0 -80 -4 -130 -10 -130 -5 0 -10 -14 -10 -30 0 -18 -6 -33 -15
-36 -11 -5 -15 -22 -15 -68 0 -81 -16 -96 -105 -96 -51 0 -65 3 -65 15 0 8 -7
15 -15 15 -9 0 -15 9 -15 25 0 15 -6 25 -15 25 -10 0 -14 9 -13 25 3 33 24 32
32 0 8 -31 26 -23 26 11 0 15 -6 24 -15 24 -8 0 -15 3 -15 8 1 15 28 42 44 42
9 0 16 6 16 14 0 8 7 16 15 20 8 3 15 16 15 30 0 13 7 26 15 30 8 3 15 17 15
31 0 20 5 25 25 25 21 0 25 5 25 30 0 20 5 30 15 30 8 0 15 7 15 15 0 8 7 15
15 15 10 0 15 10 15 30 0 17 5 30 10 30 6 0 10 -50 10 -130z m627 104 c-3 -3
-12 -4 -19 -1 -8 3 -5 6 6 6 11 1 17 -2 13 -5z m-22 -24 c-3 -5 -11 -10 -16
-10 -6 0 -7 5 -4 10 3 6 11 10 16 10 6 0 7 -4 4 -10z m-1145 -25 c0 -8 7 -15
15 -15 8 0 15 -7 15 -15 0 -8 7 -15 15 -15 10 0 15 -7 13 -17 -2 -12 3 -18 15
-17 12 1 17 -6 17 -27 0 -19 5 -29 15 -29 8 0 15 -7 15 -15 0 -8 7 -15 15 -15
8 0 15 -7 15 -15 0 -8 6 -15 14 -15 8 0 16 -7 20 -15 3 -8 12 -15 21 -15 14 0
55 -34 55 -45 0 -3 -7 -5 -15 -5 -10 0 -15 -10 -15 -30 0 -16 -4 -30 -10 -30
-5 0 -10 -7 -10 -15 0 -8 -7 -15 -15 -15 -8 0 -15 -7 -15 -15 0 -12 13 -15 55
-15 30 0 55 -4 55 -10 0 -11 -9 -12 -100 -10 -36 1 -66 6 -68 11 -2 5 -19 9
-38 9 -24 0 -34 5 -34 15 0 8 -9 15 -20 15 -18 0 -20 7 -20 55 0 47 -3 55 -19
55 -15 0 -19 10 -24 53 -10 79 3 217 19 217 8 0 14 -7 14 -15z m-623 -31 c-3
-3 -12 -4 -19 -1 -8 3 -5 6 6 6 11 1 17 -2 13 -5z m50 -40 c-3 -3 -12 -4 -19
-1 -8 3 -5 6 6 6 11 1 17 -2 13 -5z m723 -19 c0 -10 10 -15 30 -15 27 0 30 -3
30 -30 0 -20 -5 -30 -15 -30 -8 0 -15 7 -15 15 0 8 -7 15 -15 15 -8 0 -15 7
-15 15 0 8 -7 15 -15 15 -8 0 -15 7 -15 15 0 8 7 15 15 15 8 0 15 -7 15 -15z
m230 -15 c0 -19 -5 -30 -14 -30 -8 0 -16 -7 -20 -15 -3 -8 -10 -15 -16 -15 -5
0 -10 7 -10 15 0 8 5 15 11 15 6 0 9 9 6 19 -3 13 0 18 8 15 7 -3 15 2 18 10
10 25 17 19 17 -14z m720 -60 c0 -47 -3 -60 -15 -60 -8 0 -15 9 -15 20 0 14
-7 20 -24 20 -13 0 -33 3 -43 7 -15 6 -13 8 12 13 17 3 30 10 30 15 0 15 28
44 43 45 8 0 12 -18 12 -60z m-1710 -10 c0 -27 -4 -50 -10 -50 -11 0 -14 83
-3 93 12 12 13 8 13 -43z m1420 -20 c0 -16 -4 -30 -10 -30 -5 0 -10 14 -10 30
0 17 5 30 10 30 6 0 10 -13 10 -30z m178 2 c2 -7 -3 -12 -12 -12 -9 0 -16 -4
-16 -10 0 -5 -7 -10 -15 -10 -8 0 -15 7 -15 15 0 8 7 15 15 15 8 0 15 5 15 11
0 14 23 6 28 -9z m-1458 -18 c0 -2 -7 -4 -15 -4 -8 0 -15 4 -15 10 0 5 7 7 15
4 8 -4 15 -8 15 -10z m1340 6 c0 -5 -7 -10 -15 -10 -8 0 -15 5 -15 10 0 6 7
10 15 10 8 0 15 -4 15 -10z m-1556 -59 c3 -5 -5 -16 -19 -25 -22 -14 -25 -14
-39 0 -9 8 -16 11 -16 5 0 -6 -7 -11 -15 -11 -8 0 -15 -4 -15 -10 0 -5 -5 -10
-11 -10 -6 0 -17 -7 -25 -15 -14 -13 -13 -15 3 -15 11 0 29 9 41 20 23 22 42
26 42 10 0 -5 7 -10 15 -10 8 0 15 5 15 10 0 6 6 10 13 10 7 0 19 9 27 20 8
11 19 20 25 20 6 0 17 -9 25 -20 8 -11 20 -20 27 -20 7 0 13 -4 13 -10 0 -5 7
-10 15 -10 8 0 15 -4 15 -10 0 -5 -7 -10 -15 -10 -8 0 -15 -7 -15 -15 0 -8 -4
-15 -10 -15 -5 0 -10 7 -10 15 0 8 5 15 10 15 6 0 10 5 10 10 0 16 -14 12 -38
-10 -23 -22 -42 -26 -42 -10 0 6 5 10 11 10 6 0 17 7 25 15 14 13 14 17 0 30
-18 19 -24 19 -42 1 -18 -19 -18 -26 3 -26 14 0 15 -2 4 -12 -11 -10 -14 -10
-18 0 -6 14 -33 16 -33 2 0 -5 -7 -10 -15 -10 -8 0 -15 -4 -15 -10 0 -5 -8
-10 -17 -10 -17 1 -17 1 0 14 19 15 22 26 6 26 -14 0 -39 -25 -39 -39 0 -6
-20 -11 -45 -11 -33 0 -45 4 -45 15 0 8 -4 15 -10 15 -5 0 -10 -7 -10 -15 0
-8 -7 -15 -15 -15 -8 0 -15 7 -15 15 0 8 -4 15 -9 15 -5 0 -11 -7 -15 -15 -6
-17 -26 -20 -26 -5 0 13 49 60 62 60 5 0 16 7 24 15 19 18 57 20 52 3 -3 -7
-9 -13 -14 -13 -5 0 -17 -5 -28 -11 -18 -11 -18 -11 1 -16 14 -4 32 5 54 26
33 30 110 52 95 27 -4 -6 -1 -11 7 -11 8 0 17 7 21 15 6 17 12 19 20 6z m156
-1 c0 -5 -5 -10 -11 -10 -5 0 -7 5 -4 10 3 6 8 10 11 10 2 0 4 -4 4 -10z m90
0 c0 -5 -7 -10 -15 -10 -8 0 -15 -4 -15 -10 0 -5 -7 -10 -15 -10 -8 0 -15 -4
-15 -10 0 -5 -7 -10 -15 -10 -8 0 -15 -5 -15 -12 0 -9 -3 -9 -12 0 -6 6 -10
13 -7 15 2 2 19 15 37 30 33 27 72 36 72 17z m100 -3 c0 -4 5 -5 10 -2 6 3 10
1 10 -4 0 -6 -11 -10 -24 -9 -13 1 -42 -7 -65 -17 -41 -20 -52 -39 -28 -48 6
-2 8 -8 4 -13 -4 -5 -12 -2 -16 5 -7 11 -14 11 -42 -3 -18 -9 -34 -14 -37 -11
-8 7 19 35 34 35 8 0 14 4 14 9 0 5 9 13 20 16 11 4 32 17 45 31 23 23 75 31
75 11z m1330 -2 c0 -12 -17 -15 -90 -15 -73 0 -90 3 -90 15 0 12 17 15 90 15
73 0 90 -3 90 -15z m160 0 c0 -8 -7 -15 -15 -15 -8 0 -15 -7 -15 -15 0 -8 -7
-15 -15 -15 -15 0 -21 40 -8 53 13 13 53 7 53 -8z m-1720 1 c0 -2 -7 -6 -15
-10 -8 -3 -15 -1 -15 4 0 6 7 10 15 10 8 0 15 -2 15 -4z m20 -20 c0 -11 -19
-15 -25 -6 -3 5 1 10 9 10 9 0 16 -2 16 -4z m1780 -11 c0 -8 -4 -15 -10 -15
-5 0 -10 -4 -10 -9 0 -6 17 -11 37 -13 49 -4 54 -25 9 -34 -53 -9 -83 1 -82
28 1 13 -4 22 -11 21 -7 -2 -13 2 -13 8 0 7 11 9 28 5 15 -3 21 -3 15 0 -22
10 -14 24 12 24 16 0 25 -6 25 -15z m-210 -22 c8 -13 13 -14 16 -5 8 17 34 15
34 -3 0 -20 -66 -20 -86 -1 -19 20 -18 26 6 26 10 0 24 -8 30 -17z m-1390 -6
c0 -7 -9 -13 -21 -14 -17 -2 -18 1 -9 13 15 17 30 18 30 1z m1209 1 c11 -10
14 -10 18 0 5 14 73 17 73 2 0 -5 7 -10 15 -10 8 0 15 -9 15 -20 0 -11 -7 -20
-15 -20 -8 0 -15 -9 -15 -20 0 -11 -4 -20 -10 -20 -5 0 -10 -7 -10 -15 0 -11
11 -15 40 -15 29 0 40 4 40 15 0 8 5 15 10 15 6 0 10 -7 10 -15 0 -13 29 -15
205 -15 130 0 205 -4 205 -10 0 -6 -75 -10 -205 -10 -176 0 -205 -2 -205 -15
0 -13 29 -15 205 -15 130 0 205 -4 205 -10 0 -6 -90 -10 -250 -10 -160 0 -250
4 -250 10 0 6 16 10 36 10 24 0 34 4 31 13 -3 8 -21 11 -51 10 -45 -3 -46 -2
-46 26 0 16 6 32 13 35 10 5 10 7 0 12 -7 3 -13 12 -13 20 0 8 -7 14 -15 14
-8 0 -15 5 -15 10 0 6 -11 10 -25 10 -16 0 -25 6 -25 15 0 18 11 19 29 3z
m501 -3 c0 -8 -7 -15 -15 -15 -8 0 -15 7 -15 15 0 8 7 15 15 15 8 0 15 -7 15
-15z m-220 -24 c0 -12 -35 -20 -50 -11 -9 6 -8 9 6 13 32 8 44 7 44 -2z
m-1350 -20 c0 -5 -21 -19 -47 -31 -27 -12 -64 -30 -84 -41 -20 -10 -44 -19
-52 -19 -16 0 -34 37 -23 47 3 4 6 1 6 -5 0 -7 7 -12 15 -12 8 0 15 5 15 10 0
6 7 10 15 10 8 0 15 5 15 10 0 6 11 10 24 10 13 0 26 6 29 13 5 14 87 21 87 8z
m1240 -6 c0 -8 -4 -15 -10 -15 -5 0 -10 7 -10 15 0 8 5 15 10 15 6 0 10 -7 10
-15z m350 0 c0 -10 10 -15 30 -15 17 0 30 -4 30 -10 0 -6 -43 -10 -110 -10
-67 0 -110 4 -110 10 0 6 30 10 70 10 56 0 70 3 70 15 0 8 5 15 10 15 6 0 10
-7 10 -15z m-380 -25 c0 -5 -4 -10 -10 -10 -5 0 -10 5 -10 10 0 6 5 10 10 10
6 0 10 -4 10 -10z m85 0 c3 -5 -1 -10 -9 -10 -9 0 -16 5 -16 10 0 6 4 10 9 10
6 0 13 -4 16 -10z m55 0 c0 -5 -4 -10 -10 -10 -5 0 -10 5 -10 10 0 6 5 10 10
10 6 0 10 -4 10 -10z m50 0 c0 -5 -4 -10 -10 -10 -5 0 -10 5 -10 10 0 6 5 10
10 10 6 0 10 -4 10 -10z m-415 -21 c-4 -6 2 -13 14 -16 12 -3 21 -9 21 -14 0
-5 16 -9 35 -9 31 0 35 -3 35 -25 0 -22 -4 -25 -38 -25 -28 0 -42 6 -56 25
-10 14 -27 25 -37 25 -22 0 -60 30 -53 42 3 4 23 8 45 8 26 0 38 -4 34 -11z
m-1265 -29 c0 -5 -4 -10 -10 -10 -5 0 -10 5 -10 10 0 6 5 10 10 10 6 0 10 -4
10 -10z m60 0 c0 -5 -7 -10 -15 -10 -8 0 -15 5 -15 10 0 6 7 10 15 10 8 0 15
-4 15 -10z m320 -14 c0 -13 -39 -30 -49 -21 -2 3 1 5 7 5 7 0 12 7 12 15 0 8
7 15 15 15 8 0 15 -6 15 -14z m50 -1 c0 -8 -7 -15 -15 -15 -8 0 -15 7 -15 15
0 8 7 15 15 15 8 0 15 -7 15 -15z m80 0 c0 -8 -7 -15 -15 -15 -8 0 -15 7 -15
15 0 8 7 15 15 15 8 0 15 -7 15 -15z m100 -15 c0 -20 -5 -30 -15 -30 -8 0 -15
6 -15 14 0 8 -7 16 -15 20 -26 10 -16 26 15 26 27 0 30 -3 30 -30z m310 1 c0
-35 -29 -52 -37 -21 -3 11 -9 20 -14 20 -5 0 -9 7 -9 15 0 10 10 15 30 15 26
0 30 -3 30 -29z m134 14 c-4 -9 0 -15 10 -15 9 0 16 7 16 15 0 10 10 15 30 15
22 0 28 -4 24 -15 -4 -8 1 -17 10 -21 9 -3 16 -12 16 -20 0 -8 6 -14 14 -14 8
0 17 -6 20 -12 5 -10 7 -10 12 0 7 14 34 16 34 2 0 -5 5 -10 11 -10 20 0 39
-29 39 -59 0 -17 -4 -31 -10 -31 -15 0 -12 -57 3 -64 10 -5 10 -7 0 -12 -7 -3
-13 -21 -13 -40 0 -22 -6 -37 -15 -40 -8 -4 -15 -12 -15 -18 0 -7 -11 -19 -25
-26 -25 -13 -33 -30 -15 -30 6 0 10 -7 10 -15 0 -8 7 -15 15 -15 8 0 15 -4 15
-10 0 -14 -27 -12 -34 3 -5 10 -7 10 -12 0 -7 -15 -34 -17 -34 -3 0 6 7 10 15
10 8 0 15 7 15 15 0 12 -13 15 -55 15 -30 0 -55 5 -55 10 0 6 -4 10 -10 10
-15 0 -50 33 -44 42 3 4 -2 8 -10 8 -12 0 -16 10 -16 40 0 29 -4 40 -15 40 -8
0 -15 7 -15 16 0 8 -4 12 -10 9 -5 -3 -10 1 -10 9 0 9 5 16 10 16 14 0 12 37
-2 44 -10 5 -10 7 0 12 6 3 12 18 12 34 0 23 5 29 25 32 34 4 32 22 -3 24 -45
2 -52 4 -52 14 0 6 7 10 15 10 8 0 15 5 15 10 0 6 7 10 15 10 8 0 15 5 15 10
0 6 13 10 30 10 22 0 28 -4 24 -15z m-914 -5 c0 -5 -5 -10 -11 -10 -5 0 -7 5
-4 10 3 6 8 10 11 10 2 0 4 -4 4 -10z m49 -8 c-7 -3 -18 -11 -22 -18 -4 -8
-15 -14 -24 -14 -13 0 -11 5 8 23 13 13 31 21 38 18 13 -4 13 -5 0 -9z m291
-42 c0 -5 6 -10 13 -10 8 0 19 -10 25 -22 9 -19 11 -20 11 -5 1 20 24 47 39
47 18 0 44 -38 36 -52 -5 -7 -9 -17 -9 -23 0 -5 -8 -9 -18 -7 -15 3 -17 -11
-17 -153 0 -131 -2 -155 -15 -155 -13 0 -15 24 -15 160 l0 160 -27 -11 c-31
-12 -53 -6 -53 16 0 8 -7 15 -15 15 -8 0 -15 6 -16 13 0 10 -2 10 -6 0 -7 -18
-33 -16 -33 2 0 8 -5 14 -12 13 -6 -2 -14 5 -16 15 -2 10 2 17 11 17 9 0 18 6
21 13 5 10 7 10 12 0 8 -18 31 -16 38 4 6 14 9 14 26 -5 11 -12 20 -26 20 -32z
m-365 20 c3 -5 1 -10 -4 -10 -6 0 -11 5 -11 10 0 6 2 10 4 10 3 0 8 -4 11 -10z
m1095 0 c0 -5 -4 -10 -10 -10 -5 0 -10 5 -10 10 0 6 5 10 10 10 6 0 10 -4 10
-10z m-880 -15 c0 -9 -6 -18 -14 -21 -8 -3 -19 -18 -24 -32 -8 -24 -14 -27
-53 -27 -33 0 -45 5 -47 18 -2 10 3 17 12 17 9 0 16 6 16 14 0 8 5 18 12 22 7
4 8 3 4 -4 -13 -21 39 -13 54 8 17 24 40 26 40 5z m-135 -35 c-3 -5 -10 -10
-16 -10 -5 0 -9 5 -9 10 0 6 7 10 16 10 8 0 12 -4 9 -10z m605 0 c0 -6 -18
-10 -40 -10 -22 0 -40 4 -40 8 0 5 18 9 40 10 22 1 40 -3 40 -8z m148 -2 c-6
-18 -28 -21 -28 -4 0 9 7 16 16 16 9 0 14 -5 12 -12z m-778 -34 c0 -8 5 -12
10 -9 6 3 10 -1 10 -9 0 -9 -4 -16 -10 -16 -14 0 -12 -37 3 -44 10 -5 10 -7 0
-12 -19 -9 -17 -84 2 -84 20 0 19 -17 -2 -29 -10 -5 -14 -13 -9 -18 5 -4 11
-2 13 5 3 6 16 12 30 12 14 0 32 8 39 18 13 16 13 16 14 0 0 -10 7 -18 15 -18
8 0 15 -7 15 -15 0 -8 -7 -15 -15 -15 -8 0 -15 7 -15 15 0 8 -4 15 -10 15 -5
0 -10 -7 -10 -15 0 -10 -10 -15 -30 -15 -16 0 -30 -4 -30 -9 0 -5 59 -10 132
-10 72 -1 134 -3 136 -6 14 -13 -18 -17 -148 -16 -107 1 -146 5 -156 16 -11
10 -14 46 -14 143 0 71 3 132 6 135 10 10 24 -2 24 -19z m-170 9 c0 -5 -48 -7
-107 -5 -193 4 -211 8 -50 10 86 1 157 -1 157 -5z m120 -158 c0 -103 -4 -165
-10 -165 -6 0 -10 62 -10 165 0 103 4 165 10 165 6 0 10 -62 10 -165z m1640
158 c0 -5 -62 -7 -137 -5 -201 4 -213 9 -25 11 89 0 162 -2 162 -6z m-1330
-28 c0 -8 5 -15 10 -15 6 0 10 -13 10 -30 0 -16 -4 -30 -10 -30 -12 0 -31 35
-23 44 3 3 2 6 -4 6 -6 0 -9 9 -6 20 6 23 23 27 23 5z m313 -2 c-7 -2 -21 -2
-30 0 -10 3 -4 5 12 5 17 0 24 -2 18 -5z m-363 -28 c0 -8 -9 -15 -20 -15 -11
0 -20 7 -20 15 0 8 9 15 20 15 11 0 20 -7 20 -15z m130 0 c0 -8 -7 -15 -15
-15 -8 0 -15 7 -15 15 0 8 7 15 15 15 8 0 15 -7 15 -15z m307 -17 c-3 -7 -5
-2 -5 12 0 14 2 19 5 13 2 -7 2 -19 0 -25z m-602 12 c-3 -5 -10 -10 -16 -10
-5 0 -9 5 -9 10 0 6 7 10 16 10 8 0 12 -4 9 -10z m1425 -190 l0 -180 -81 0
c-48 0 -78 4 -74 10 3 5 34 8 69 6 55 -2 62 0 50 12 -17 16 -17 19 -4 27 6 4
9 3 8 -2 -2 -4 2 -9 7 -10 6 -2 10 34 11 90 2 166 4 227 9 227 3 0 5 -81 5
-180z m-1885 159 c-4 -5 -3 -47 2 -92 l8 -82 6 95 c4 78 6 63 7 -82 l2 -178
-25 0 -25 0 0 175 c0 152 2 175 16 175 8 0 12 -5 9 -11z m1563 0 c-2 -6 -8
-10 -13 -10 -5 0 -11 4 -13 10 -2 6 4 11 13 11 9 0 15 -5 13 -11z m412 -164
l0 -175 -25 0 -25 0 2 128 2 127 3 -122 c4 -122 15 -158 27 -85 3 20 5 95 4
167 l-2 130 -6 -130 -6 -130 -2 123 c-1 79 -6 121 -12 117 -5 -3 -10 -2 -10 4
0 5 6 12 13 14 36 15 37 11 37 -168z m-911 149 c2 -2 -27 -3 -65 -3 -55 1 -62
3 -34 9 32 6 89 2 99 -6z m-952 -26 c-3 -7 -5 -2 -5 12 0 14 2 19 5 13 2 -7 2
-19 0 -25z m463 -13 c0 -10 -10 -15 -30 -15 -20 0 -30 5 -30 15 0 10 10 15 30
15 20 0 30 -5 30 -15z m990 0 c0 -8 5 -15 10 -15 6 0 10 -7 10 -16 0 -8 -4
-12 -10 -9 -6 4 -10 -10 -10 -34 0 -22 5 -41 12 -43 8 -3 1 -17 -20 -38 -18
-18 -36 -29 -40 -25 -4 4 -1 10 6 12 6 3 12 11 12 18 0 7 -6 16 -12 19 -10 5
-10 7 0 12 7 4 12 27 12 63 0 32 3 61 7 64 11 12 23 8 23 -8z m-1072 -26 c-2
-6 -8 -10 -13 -10 -5 0 -11 4 -13 10 -2 6 4 11 13 11 9 0 15 -5 13 -11z m502
7 c0 -2 -11 -6 -25 -8 -14 -3 -25 -1 -25 3 0 5 11 9 25 9 14 0 25 -2 25 -4z
m67 -2 c-3 -3 -12 -4 -19 -1 -8 3 -5 6 6 6 11 1 17 -2 13 -5z m-984 -121 c2
-46 0 -83 -5 -83 -4 0 -7 44 -7 98 1 111 6 105 12 -15z m44 55 c-2 -13 -4 -5
-4 17 -1 22 1 32 4 23 2 -10 2 -28 0 -40z m628 22 c-5 -8 -11 -8 -17 -2 -6 6
-7 16 -3 22 5 8 11 8 17 2 6 -6 7 -16 3 -22z m312 -32 c-2 -13 -4 -3 -4 22 0
25 2 35 4 23 2 -13 2 -33 0 -45z m760 0 c-2 -13 -4 -3 -4 22 0 25 2 35 4 23 2
-13 2 -33 0 -45z m-1127 42 c0 -5 7 -10 15 -10 8 0 15 -4 15 -10 0 -5 7 -10
15 -10 8 0 15 -7 15 -15 0 -8 -7 -15 -15 -15 -8 0 -15 5 -15 10 0 6 -7 10 -15
10 -8 0 -15 7 -15 15 0 8 -4 15 -10 15 -5 0 -10 -7 -10 -15 0 -8 -7 -15 -15
-15 -8 0 -15 7 -15 15 0 8 7 15 15 15 8 0 15 5 15 10 0 6 5 10 10 10 6 0 10
-4 10 -10z m520 -15 c0 -16 6 -25 15 -25 8 0 15 -4 15 -10 0 -5 -7 -10 -15
-10 -9 0 -15 -9 -15 -25 0 -29 17 -33 36 -7 9 11 13 13 14 4 0 -15 -24 -42
-38 -42 -5 0 -14 10 -20 23 -6 12 -11 16 -11 10 -1 -18 -31 -16 -31 2 0 8 7
15 15 15 8 0 15 5 15 10 0 6 -7 10 -15 10 -8 0 -15 5 -15 10 0 6 7 10 16 10
12 0 15 7 12 25 -4 17 -1 25 8 25 8 0 14 -11 14 -25z m-620 -10 c0 -8 -4 -15
-9 -15 -13 0 -22 16 -14 24 11 11 23 6 23 -9z m470 -60 c0 -12 -13 -15 -67
-13 l-68 2 58 3 c31 2 57 8 57 13 0 6 5 10 10 10 6 0 10 -7 10 -15z m260 -10
c0 -8 7 -15 15 -15 8 0 15 -4 15 -10 0 -5 -7 -10 -15 -10 -8 0 -15 5 -15 10 0
14 -28 12 -33 -2 -2 -7 -7 -10 -11 -6 -8 7 23 48 36 48 5 0 8 -7 8 -15z m184
-6 c-3 -5 -10 -7 -15 -3 -5 3 -7 10 -3 15 3 5 10 7 15 3 5 -3 7 -10 3 -15z
m106 7 c0 -8 6 -16 13 -19 6 -2 9 -7 5 -11 -8 -10 -49 25 -42 36 8 13 24 9 24
-6z m-1043 -22 c-3 -3 -12 -4 -19 -1 -8 3 -5 6 6 6 11 1 17 -2 13 -5z m1013
-4 c0 -5 -4 -10 -10 -10 -5 0 -10 5 -10 10 0 6 5 10 10 10 6 0 10 -4 10 -10z
m-733 -33 c-3 -9 -69 -13 -270 -15 -224 -2 -267 0 -267 12 0 12 45 14 271 15
211 1 270 -2 266 -12z m133 3 c0 -5 -2 -10 -4 -10 -3 0 -8 5 -11 10 -3 6 -1
10 4 10 6 0 11 -4 11 -10z m85 -35 l0 -45 -82 0 c-69 0 -81 2 -77 15 7 16 17
19 27 9 4 -4 30 -9 58 -11 l52 -4 -6 40 c-4 34 -2 41 11 41 13 0 17 -10 17
-45z m-919 9 c-4 -9 -9 -15 -11 -12 -3 3 -3 13 1 22 4 9 9 15 11 12 3 -3 3
-13 -1 -22z m1668 1 c3 -9 0 -15 -9 -15 -8 0 -15 7 -15 15 0 8 4 15 9 15 5 0
11 -7 15 -15z m-1584 -25 c8 12 10 11 10 -7 0 -22 -3 -23 -92 -23 -104 0 -116
9 -15 12 53 1 67 5 67 17 0 14 2 14 10 1 9 -13 11 -13 20 0z m90 -16 c0 -8
-10 -14 -25 -14 -23 0 -34 18 -19 32 10 10 44 -4 44 -18z m60 6 c0 -13 -7 -20
-20 -20 -22 0 -28 25 -7 33 22 10 27 7 27 -13z m58 -3 c2 -12 -3 -17 -17 -17
-12 0 -21 6 -21 13 0 31 32 34 38 4z m60 0 c2 -12 -3 -17 -17 -17 -15 0 -21 6
-21 21 0 25 33 22 38 -4z m46 17 c25 -10 19 -34 -8 -34 -19 0 -23 4 -19 20 6
22 6 22 27 14z m60 0 c23 -9 20 -34 -4 -34 -13 0 -20 7 -20 20 0 22 1 23 24
14z m70 0 c25 -10 19 -34 -9 -34 -24 0 -34 18 -18 33 8 8 8 8 27 1z m76 -16
c0 -11 -7 -18 -20 -18 -13 0 -20 7 -20 19 0 14 6 19 20 18 12 -1 20 -8 20 -19z
m50 -4 c0 -8 -7 -14 -15 -14 -15 0 -21 21 -9 33 10 9 24 -2 24 -19z m36 -11
c-11 -11 -19 6 -11 24 8 17 8 17 12 0 3 -10 2 -21 -1 -24z m324 11 c0 -8 -9
-14 -20 -14 -19 0 -27 19 -14 33 10 9 34 -4 34 -19z m68 3 c3 -12 -3 -17 -22
-17 -25 0 -35 18 -19 34 12 12 38 2 41 -17z m52 3 c0 -11 -7 -20 -15 -20 -8 0
-15 9 -15 20 0 11 7 20 15 20 8 0 15 -9 15 -20z m60 0 c0 -13 -7 -20 -20 -20
-13 0 -20 7 -20 20 0 13 7 20 20 20 13 0 20 -7 20 -20z m68 -3 c3 -12 -4 -17
-22 -17 -27 0 -37 24 -13 33 19 8 32 2 35 -16z m72 3 c0 -16 -7 -20 -30 -20
-18 0 -30 5 -30 13 0 19 5 22 34 25 20 1 26 -3 26 -18z m78 -2 c3 -14 -3 -18
-22 -18 -19 0 -26 5 -26 19 0 24 43 23 48 -1z m60 -1 c3 -12 -3 -17 -22 -17
-25 0 -35 18 -19 34 12 12 38 2 41 -17z m52 3 c0 -13 -7 -20 -20 -20 -13 0
-20 7 -20 20 0 13 7 20 20 20 13 0 20 -7 20 -20z m107 14 c-3 -3 -12 -4 -19
-1 -8 3 -5 6 6 6 11 1 17 -2 13 -5z"/>
<path d="M1136 1984 c-10 -25 -7 -74 4 -74 6 0 10 20 10 45 0 47 -4 55 -14 29z"/>
<path d="M1231 1962 c-6 -2 -11 -10 -11 -18 0 -9 -4 -13 -9 -9 -5 3 -12 1 -16
-5 -3 -6 1 -13 9 -16 20 -8 21 -34 1 -34 -8 0 -15 -7 -15 -15 0 -8 7 -15 15
-15 8 0 15 -7 15 -15 0 -8 9 -15 20 -15 11 0 20 7 20 15 0 8 5 15 10 15 6 0
10 7 10 15 0 8 7 15 15 15 8 0 15 -7 15 -15 0 -8 7 -15 15 -15 8 0 15 -7 15
-15 0 -8 -7 -15 -15 -15 -8 0 -15 -6 -15 -14 0 -8 -6 -17 -12 -20 -10 -5 -10
-7 0 -12 6 -3 12 -12 12 -20 0 -8 7 -14 15 -14 10 0 15 10 15 30 0 17 5 30 10
30 6 0 10 18 10 40 0 38 2 40 30 40 28 0 30 -2 30 -40 0 -29 4 -40 15 -40 9 0
15 9 15 25 0 14 5 25 10 25 6 0 10 -7 10 -16 0 -9 7 -14 18 -12 11 3 16 12 15
26 -2 13 5 26 17 32 33 17 13 30 -46 30 -41 0 -54 4 -54 15 0 8 -4 15 -10 15
-5 0 -10 -6 -10 -14 0 -14 -36 -26 -58 -18 -7 2 -12 10 -12 18 0 9 -5 12 -10
9 -6 -3 -14 2 -18 12 -7 17 -42 25 -71 15z m46 -48 c-3 -3 -12 -4 -19 -1 -8 3
-5 6 6 6 11 1 17 -2 13 -5z"/>
<path d="M1480 1961 c0 -5 -7 -17 -16 -25 -14 -15 -12 -16 21 -16 20 0 45 -5
56 -10 16 -9 19 -7 19 10 0 11 -7 20 -15 20 -8 0 -15 7 -15 15 0 9 -9 15 -25
15 -14 0 -25 -4 -25 -9z"/>
<path d="M980 1926 c0 -9 7 -16 16 -16 17 0 14 22 -4 28 -7 2 -12 -3 -12 -12z"/>
<path d="M1100 1865 c0 -8 -7 -15 -15 -15 -9 0 -15 -9 -15 -25 0 -29 12 -32
40 -8 24 21 27 63 5 63 -8 0 -15 -7 -15 -15z"/>
<path d="M1530 1869 c0 -13 25 -39 39 -39 6 0 8 7 4 16 -3 9 0 20 8 25 10 6 4
9 -18 9 -18 0 -33 -5 -33 -11z"/>
<path d="M1132 1795 c-1 -21 3 -25 23 -25 30 0 31 4 5 30 -25 25 -25 25 -28
-5z"/>
<path d="M1454 1783 c-13 -41 -22 -48 -65 -49 -23 0 -45 -6 -47 -12 -2 -7 1
-12 7 -12 6 0 11 -9 11 -20 0 -18 -7 -20 -60 -20 -61 0 -73 -9 -46 -36 17 -16
46 -19 46 -4 0 6 9 10 20 10 23 0 27 -18 5 -26 -35 -14 -10 -24 55 -24 56 0
70 3 70 15 0 10 10 15 31 15 16 0 28 4 25 9 -3 5 3 11 14 14 43 11 19 27 -40
27 -48 0 -60 -3 -60 -16 0 -11 -8 -14 -27 -12 -34 4 -38 32 -5 36 25 4 62 35
62 53 0 5 5 7 10 4 6 -4 10 8 10 29 0 39 -7 47 -16 19z"/>
<path d="M1074 1726 c-8 -22 3 -33 18 -18 9 9 9 15 0 24 -9 9 -13 7 -18 -6z"/>
<path d="M1120 1685 c0 -8 9 -15 20 -15 11 0 20 7 20 15 0 8 -9 15 -20 15 -11
0 -20 -7 -20 -15z"/>
<path d="M1373 1543 c9 -2 25 -2 35 0 9 3 1 5 -18 5 -19 0 -27 -2 -17 -5z"/>
<path d="M205 1040 c3 -5 8 -10 11 -10 2 0 4 5 4 10 0 6 -5 10 -11 10 -5 0 -7
-4 -4 -10z"/>
<path d="M2030 1020 c0 -5 5 -10 10 -10 6 0 10 5 10 10 0 6 -4 10 -10 10 -5 0
-10 -4 -10 -10z"/>
<path d="M1628 883 c7 -3 16 -2 19 1 4 3 -2 6 -13 5 -11 0 -14 -3 -6 -6z"/>
<path d="M1677 853 c-12 -11 -8 -23 8 -23 8 0 15 7 15 15 0 16 -12 20 -23 8z"/>
<path d="M1706 785 c-4 -12 3 -15 34 -15 29 0 40 4 40 15 0 10 -10 15 -34 15
-21 0 -36 -6 -40 -15z"/>
<path d="M1620 725 c0 -33 4 -45 15 -45 8 0 15 -9 15 -20 0 -11 5 -20 10 -20
6 0 10 9 10 20 0 11 -4 20 -10 20 -5 0 -10 20 -10 45 0 33 -4 45 -15 45 -11 0
-15 -12 -15 -45z"/>
<path d="M1832 703 c2 -42 8 -68 16 -71 9 -3 12 15 12 67 0 57 -3 71 -15 71
-13 0 -15 -12 -13 -67z"/>
<path d="M1680 730 c0 -5 5 -10 10 -10 6 0 10 5 10 10 0 6 -4 10 -10 10 -5 0
-10 -4 -10 -10z"/>
<path d="M1730 640 c0 -11 7 -20 15 -20 8 0 15 5 15 10 0 6 7 10 15 10 8 0 15
5 15 10 0 6 -13 10 -30 10 -23 0 -30 -4 -30 -20z"/>
<path d="M1675 620 c-3 -5 1 -10 9 -10 9 0 16 5 16 10 0 6 -4 10 -9 10 -6 0
-13 -4 -16 -10z"/>
<path d="M1810 620 c0 -5 5 -10 10 -10 6 0 10 5 10 10 0 6 -4 10 -10 10 -5 0
-10 -4 -10 -10z"/>
<path d="M1705 590 c4 -6 11 -8 16 -5 14 9 11 15 -7 15 -8 0 -12 -5 -9 -10z"/>
<path d="M1790 589 c0 -5 5 -7 10 -4 6 3 10 8 10 11 0 2 -4 4 -10 4 -5 0 -10
-5 -10 -11z"/>
<path d="M868 813 c7 -3 16 -2 19 1 4 3 -2 6 -13 5 -11 0 -14 -3 -6 -6z"/>
<path d="M363 410 c0 -25 2 -35 4 -22 2 12 2 32 0 45 -2 12 -4 2 -4 -23z"/>
<path d="M137 1923 c-11 -10 -8 -83 3 -83 6 0 10 16 10 35 0 28 4 35 20 35 11
0 20 5 20 10 0 11 -43 14 -53 3z"/>
<path d="M2510 1920 c0 -5 9 -10 20 -10 15 0 20 -7 20 -29 0 -16 -7 -37 -16
-46 -23 -23 -10 -30 15 -8 15 13 21 29 21 60 0 41 -1 43 -30 43 -16 0 -30 -4
-30 -10z"/>
<path d="M200 1894 c0 -8 5 -12 10 -9 6 3 10 10 10 16 0 5 -4 9 -10 9 -5 0
-10 -7 -10 -16z"/>
<path d="M2480 1889 c0 -5 5 -7 10 -4 6 3 10 8 10 11 0 2 -4 4 -10 4 -5 0 -10
-5 -10 -11z"/>
<path d="M230 1870 c0 -5 5 -10 11 -10 5 0 7 5 4 10 -3 6 -8 10 -11 10 -2 0
-4 -4 -4 -10z"/>
<path d="M255 1840 c-3 -5 1 -10 10 -10 9 0 13 5 10 10 -3 6 -8 10 -10 10 -2
0 -7 -4 -10 -10z"/>
<path d="M2425 1841 c-3 -5 -1 -12 5 -16 5 -3 10 1 10 9 0 18 -6 21 -15 7z"/>
<path d="M160 1820 c0 -5 5 -10 10 -10 6 0 10 5 10 10 0 6 -4 10 -10 10 -5 0
-10 -4 -10 -10z"/>
<path d="M285 1810 c-3 -5 1 -10 10 -10 9 0 13 5 10 10 -3 6 -8 10 -10 10 -2
0 -7 -4 -10 -10z"/>
<path d="M190 1789 c0 -5 5 -7 10 -4 6 3 10 8 10 11 0 2 -4 4 -10 4 -5 0 -10
-5 -10 -11z"/>
<path d="M310 1780 c0 -5 7 -10 16 -10 8 0 12 5 9 10 -3 6 -10 10 -16 10 -5 0
-9 -4 -9 -10z"/>
<path d="M340 1750 c0 -5 5 -10 10 -10 6 0 10 5 10 10 0 6 -4 10 -10 10 -5 0
-10 -4 -10 -10z"/>
<path d="M2340 1750 c0 -5 5 -10 10 -10 6 0 10 5 10 10 0 6 -4 10 -10 10 -5 0
-10 -4 -10 -10z"/>
<path d="M230 1660 c0 -5 9 -10 19 -10 11 0 23 5 26 10 4 6 -5 10 -19 10 -14
0 -26 -4 -26 -10z"/>
<path d="M2420 1658 c0 -4 11 -8 25 -8 14 0 25 4 25 10 0 5 -11 9 -25 8 -14
-1 -25 -6 -25 -10z"/>
<path d="M325 1600 c-3 -5 3 -10 14 -10 12 0 21 5 21 10 0 6 -6 10 -14 10 -8
0 -18 -4 -21 -10z"/>
<path d="M2340 1599 c0 -5 9 -9 20 -9 11 0 20 4 20 8 0 4 -9 8 -20 9 -11 1
-20 -2 -20 -8z"/>
</g>
</svg>
